<?xml version="1.0" encoding="UTF-8" standalone="no"?>
<svg
   xmlns:dc="http://purl.org/dc/elements/1.1/"
   xmlns:cc="http://creativecommons.org/ns#"
   xmlns:rdf="http://www.w3.org/1999/02/22-rdf-syntax-ns#"
   xmlns:svg="http://www.w3.org/2000/svg"
   xmlns="http://www.w3.org/2000/svg"
   id="svg8"
   version="1.1"
   viewBox="0 0 19.824097 20.674601"
   height="20.674601mm"
   width="19.824097mm">
  <defs
     id="defs2">
    <filter
       height="1.6648"
       y="-0.33239999"
       width="1.6648"
       x="-0.33239999"
       id="filter5697"
       style="color-interpolation-filters:sRGB">
      <feGaussianBlur
         id="feGaussianBlur5699"
         stdDeviation="5.5490851" />
    </filter>
    <filter
       height="1.5616"
       y="-0.28080001"
       width="1.5616"
       x="-0.28080001"
       id="filter6257"
       style="color-interpolation-filters:sRGB">
      <feGaussianBlur
         id="feGaussianBlur6259"
         stdDeviation="1.17" />
    </filter>
  </defs>
  <metadata
     id="metadata5">
    <rdf:RDF>
      <cc:Work
         rdf:about="">
        <dc:format>image/svg+xml</dc:format>
        <dc:type
           rdf:resource="http://purl.org/dc/dcmitype/StillImage" />
        <dc:title></dc:title>
      </cc:Work>
    </rdf:RDF>
  </metadata>
  <g
     transform="translate(-9.6779107e-8,-276.3254)"
     id="layer1">
    <g
       transform="matrix(0.289576,0,0,0.30199956,-20.406386,251.07529)"
       id="g6263">
      <path
         style="opacity:1;fill:#5f5fd3;fill-opacity:1;stroke:none;stroke-width:0.52916664;stroke-miterlimit:4;stroke-dasharray:none;filter:url(#filter5697)"
         id="path4495"
         d="m 104.78256,122.24648 c -1.89212,0.0357 -12.618003,11.33804 -13.981173,10.02535 -1.36317,-1.31268 9.526513,-12.45728 9.490813,-14.3494 -0.0357,-1.89211 -11.338034,-12.618 -10.025352,-13.98117 1.312682,-1.36317 12.457282,9.52652 14.349402,9.49082 1.89211,-0.0357 12.618,-11.33804 13.98117,-10.02535 1.36317,1.31268 -9.52652,12.45728 -9.49082,14.34939 0.0357,1.89212 11.33804,12.618 10.02536,13.98117 -1.31269,1.36317 -12.45729,-9.52651 -14.3494,-9.49081 z"
         transform="rotate(45,104.6994,117.83928)" />
      <circle
         style="opacity:1;fill:#d5d5ff;fill-opacity:1;stroke:none;stroke-width:0.0810563;stroke-miterlimit:4;stroke-dasharray:none;filter:url(#filter6257)"
         id="path4493"
         cx="104.6994"
         cy="117.83928"
         r="5" />
    </g>
  </g>
</svg>
